<svg xmlns="http://www.w3.org/2000/svg" viewBox="0 0 512 512" role="img" aria-label="Fluent">
  <defs>
    <linearGradient id="fg" x1="0" y1="0" x2="1" y2="1">
      <stop offset="0" stop-color="#E58A5E"/>
      <stop offset="0.45" stop-color="#EFC3B0"/>
      <stop offset="0.75" stop-color="#E8B4C4"/>
      <stop offset="1" stop-color="#C8B5E0"/>
    </linearGradient>
  </defs>
  <rect width="512" height="512" rx="112" ry="112" fill="#0B1322"/>
  <g transform="translate(130.05 399.36) scale(0.40497 -0.40497)">
    <path d="M219.601318359375 340.000244140625 224.2012939453125 360.000244140625H429.8016357421875L425.20166015625 340.000244140625ZM578.6011962890625 498Q588.2010498046875 568.4000244140625 581.8007202148438 609.1000366210938Q575.400390625 649.800048828125 548.5003051757812 667.4000244140625Q521.6002197265625 685 467.80078125 685H434.802001953125Q402.8021240234375 685 385.1021728515625 679.5Q367.4022216796875 674 357.00225830078125 656.5Q346.602294921875 639 337.0023193359375 602L204.40234375 106Q194.8023681640625 70 197.8023681640625 52.0Q200.8023681640625 34 221.10235595703125 28.0Q241.40234375 22 282.8023681640625 20L278.202392578125 0Q249.002197265625 2 203.20184326171875 2.5Q157.4014892578125 3 110.401123046875 3Q64.20068359375 3 24.30029296875 2.5Q-15.60009765625 2 -40.2003173828125 0L-35.600341796875 20Q-1.600341796875 22 17.399658203125 28.0Q36.399658203125 34 47.09967041015625 52.0Q57.7996826171875 70 67.399658203125 106L199.9996337890625 602Q209.9996337890625 639 208.29962158203125 656.5Q206.599609375 674 191.099609375 680.5Q175.599609375 687 141.599609375 688L146.599609375 708Q185.999755859375 707 230.199951171875 706.5Q274.400146484375 706 317.80035400390625 705.5Q361.2005615234375 705 398.30072021484375 705.0Q435.40087890625 705 459.4010009765625 705Q504.2010498046875 705 560.3010864257812 705.5Q616.401123046875 706 661.6011962890625 708Q648.6011962890625 671.2000732421875 638.5012817382812 640.100341796875Q628.4013671875 609.0006103515625 621.80126953125 584.000244140625Q614.80126953125 558.8001708984375 609.7012329101562 537.0001220703125Q604.6011962890625 515.2000732421875 601.201171875 498ZM327.2012939453125 360.000244140625Q356.2010498046875 360.000244140625 377.2010498046875 371.30010986328125Q398.2010498046875 382.5999755859375 413.8011474609375 400.99981689453125Q429.4012451171875 419.399658203125 441.00140380859375 441.29962158203125Q452.6015625 463.1995849609375 461.20166015625 483.999755859375H483.8016357421875Q467.2017822265625 434.2001953125 460.101806640625 406.00030517578125Q453.0018310546875 377.8004150390625 445.601806640625 350.000244140625Q439.2017822265625 322.60009765625 432.00177001953125 290.39996337890625Q424.8017578125 258.1998291015625 414.0018310546875 204H391.40185546875Q393.2017822265625 232.4002685546875 392.6015625 256.90032958984375Q392.0013427734375 281.400390625 385.401123046875 300.20037841796875Q378.8009033203125 319.0003662109375 363.0008544921875 329.50030517578125Q347.2008056640625 340.000244140625 318.60107421875 340.000244140625Z" fill="url(#fg)"/>
  </g>
</svg>